<svg xmlns="http://www.w3.org/2000/svg" width="980" height="560" viewBox="0 0 980 560">
<rect width="100%" height="100%" fill="#ffffff"/>
<text x="80" y="28" font-family="Arial" font-size="20" font-weight="700">Average DFT Spectrum (phone/accel, magnitude)</text>
<line x1="80" y1="490" x2="760" y2="490" stroke="#222"/>
<line x1="80" y1="50" x2="80" y2="490" stroke="#222"/>
<line x1="80.0" y1="490" x2="80.0" y2="495" stroke="#222"/>
<text x="80.0" y="514" text-anchor="middle" font-family="Arial" font-size="12">0.0</text>
<line x1="80.0" y1="50" x2="80.0" y2="490" stroke="#eeeeee"/>
<line x1="216.0" y1="490" x2="216.0" y2="495" stroke="#222"/>
<text x="216.0" y="514" text-anchor="middle" font-family="Arial" font-size="12">2.0</text>
<line x1="216.0" y1="50" x2="216.0" y2="490" stroke="#eeeeee"/>
<line x1="352.0" y1="490" x2="352.0" y2="495" stroke="#222"/>
<text x="352.0" y="514" text-anchor="middle" font-family="Arial" font-size="12">4.0</text>
<line x1="352.0" y1="50" x2="352.0" y2="490" stroke="#eeeeee"/>
<line x1="488.0" y1="490" x2="488.0" y2="495" stroke="#222"/>
<text x="488.0" y="514" text-anchor="middle" font-family="Arial" font-size="12">6.0</text>
<line x1="488.0" y1="50" x2="488.0" y2="490" stroke="#eeeeee"/>
<line x1="624.0" y1="490" x2="624.0" y2="495" stroke="#222"/>
<text x="624.0" y="514" text-anchor="middle" font-family="Arial" font-size="12">8.0</text>
<line x1="624.0" y1="50" x2="624.0" y2="490" stroke="#eeeeee"/>
<line x1="760.0" y1="490" x2="760.0" y2="495" stroke="#222"/>
<text x="760.0" y="514" text-anchor="middle" font-family="Arial" font-size="12">10.0</text>
<line x1="760.0" y1="50" x2="760.0" y2="490" stroke="#eeeeee"/>
<line x1="75" y1="490.0" x2="80" y2="490.0" stroke="#222"/>
<text x="68" y="494.0" text-anchor="end" font-family="Arial" font-size="12">0.00</text>
<line x1="80" y1="490.0" x2="760" y2="490.0" stroke="#eeeeee"/>
<line x1="75" y1="380.0" x2="80" y2="380.0" stroke="#222"/>
<text x="68" y="384.0" text-anchor="end" font-family="Arial" font-size="12">0.25</text>
<line x1="80" y1="380.0" x2="760" y2="380.0" stroke="#eeeeee"/>
<line x1="75" y1="270.0" x2="80" y2="270.0" stroke="#222"/>
<text x="68" y="274.0" text-anchor="end" font-family="Arial" font-size="12">0.50</text>
<line x1="80" y1="270.0" x2="760" y2="270.0" stroke="#eeeeee"/>
<line x1="75" y1="160.0" x2="80" y2="160.0" stroke="#222"/>
<text x="68" y="164.0" text-anchor="end" font-family="Arial" font-size="12">0.75</text>
<line x1="80" y1="160.0" x2="760" y2="160.0" stroke="#eeeeee"/>
<line x1="75" y1="50.0" x2="80" y2="50.0" stroke="#222"/>
<text x="68" y="54.0" text-anchor="end" font-family="Arial" font-size="12">1.00</text>
<line x1="80" y1="50.0" x2="760" y2="50.0" stroke="#eeeeee"/>
<polyline fill="none" stroke="#1f77b4" stroke-width="2" points="80.0,488.4 86.8,486.9 93.6,486.2 100.4,486.0 107.2,486.8 114.0,487.3 120.8,485.8 127.6,479.4 134.4,476.8 141.2,472.3 148.0,479.4 154.8,485.2 161.6,485.5 168.4,417.2 175.2,85.7 182.0,285.1 188.8,451.3 195.6,254.6 202.4,219.2 209.2,115.9 216.0,50.0 222.8,215.8 229.6,358.3 236.4,471.4 243.2,479.5 250.0,466.1 256.8,411.2 263.6,413.3 270.4,285.7 277.2,281.4 284.0,402.1 290.8,460.7 297.6,478.6 304.4,478.9 311.2,445.6 318.0,406.2 324.8,449.9 331.6,474.1 338.4,473.1 345.2,468.8 352.0,469.1 358.8,477.2 365.6,477.8 372.4,464.0 379.2,464.0 386.0,477.3 392.8,479.5 399.6,474.0 406.4,449.6 413.2,403.6 420.0,381.6 426.8,433.5 433.6,449.1 440.4,458.0 447.2,466.3 454.0,444.1 460.8,400.2 467.6,373.7 474.4,426.6 481.2,457.4 488.0,446.9 494.8,430.8 501.6,426.9 508.4,424.9 515.2,408.2 522.0,434.5 528.8,461.1 535.6,466.8 542.4,463.6 549.2,441.7 556.0,426.6 562.8,410.8 569.6,432.1 576.4,459.5 583.2,467.9 590.0,464.5 596.8,457.4 603.6,447.3 610.4,434.3 617.2,445.2 624.0,459.0 630.8,468.6 637.6,471.1 644.4,470.6 651.2,471.7 658.0,469.9 664.8,461.9 671.6,464.0 678.4,465.9 685.2,471.7 692.0,472.3 698.8,470.6 705.6,464.2 712.4,462.1 719.2,462.5 726.0,463.5 732.8,467.2 739.6,468.8 746.4,474.5 753.2,475.1 760.0,476.7"/>
<line x1="790" y1="50" x2="815" y2="50" stroke="#1f77b4" stroke-width="3"/>
<text x="825" y="54" font-family="Arial" font-size="13">A walking</text>
<polyline fill="none" stroke="#d62728" stroke-width="2" points="80.0,487.7 86.8,485.6 93.6,480.7 100.4,478.4 107.2,484.6 114.0,486.4 120.8,485.9 127.6,486.2 134.4,486.2 141.2,482.8 148.0,436.9 154.8,413.2 161.6,464.6 168.4,468.4 175.2,484.3 182.0,485.7 188.8,486.2 195.6,486.7 202.4,485.7 209.2,481.9 216.0,422.3 222.8,58.0 229.6,158.5 236.4,459.0 243.2,437.3 250.0,77.7 256.8,50.0 263.6,433.8 270.4,482.2 277.2,484.5 284.0,481.0 290.8,459.3 297.6,411.9 304.4,450.3 311.2,481.6 318.0,481.8 324.8,478.5 331.6,448.2 338.4,410.0 345.2,451.5 352.0,481.1 358.8,480.1 365.6,463.0 372.4,455.7 379.2,476.9 386.0,483.9 392.8,482.4 399.6,481.8 406.4,480.7 413.2,480.1 420.0,475.7 426.8,473.6 433.6,475.0 440.4,463.1 447.2,468.3 454.0,481.1 460.8,485.2 467.6,485.1 474.4,484.3 481.2,484.3 488.0,483.7 494.8,480.7 501.6,473.0 508.4,461.2 515.2,451.3 522.0,464.9 528.8,477.6 535.6,483.2 542.4,482.5 549.2,479.9 556.0,477.6 562.8,477.8 569.6,476.6 576.4,472.6 583.2,472.1 590.0,468.5 596.8,468.8 603.6,468.5 610.4,474.7 617.2,481.8 624.0,483.8 630.8,484.4 637.6,483.7 644.4,483.6 651.2,483.2 658.0,479.0 664.8,474.7 671.6,471.5 678.4,468.6 685.2,469.5 692.0,470.6 698.8,474.7 705.6,476.7 712.4,477.8 719.2,477.7 726.0,479.5 732.8,478.9 739.6,481.3 746.4,481.3 753.2,475.7 760.0,468.7"/>
<line x1="790" y1="74" x2="815" y2="74" stroke="#d62728" stroke-width="3"/>
<text x="825" y="78" font-family="Arial" font-size="13">B jogging</text>
<polyline fill="none" stroke="#2ca02c" stroke-width="2" points="80.0,485.7 86.8,481.7 93.6,481.2 100.4,480.4 107.2,479.6 114.0,459.9 120.8,461.0 127.6,460.2 134.4,438.2 141.2,432.7 148.0,367.0 154.8,284.0 161.6,356.9 168.4,420.2 175.2,416.0 182.0,355.4 188.8,298.0 195.6,160.6 202.4,50.0 209.2,287.3 216.0,387.6 222.8,392.0 229.6,410.7 236.4,421.5 243.2,443.7 250.0,451.0 256.8,459.4 263.6,453.0 270.4,451.4 277.2,455.3 284.0,451.4 290.8,451.3 297.6,454.5 304.4,461.2 311.2,463.5 318.0,451.5 324.8,450.1 331.6,459.9 338.4,468.4 345.2,470.0 352.0,469.7 358.8,467.4 365.6,467.4 372.4,465.3 379.2,464.7 386.0,464.3 392.8,462.0 399.6,464.1 406.4,465.0 413.2,469.1 420.0,470.1 426.8,470.3 433.6,463.8 440.4,454.8 447.2,459.5 454.0,462.9 460.8,466.4 467.6,462.3 474.4,456.2 481.2,461.5 488.0,466.7 494.8,466.3 501.6,468.2 508.4,465.8 515.2,467.4 522.0,468.5 528.8,468.5 535.6,471.1 542.4,469.6 549.2,465.6 556.0,466.8 562.8,467.9 569.6,471.5 576.4,474.4 583.2,472.6 590.0,472.5 596.8,474.2 603.6,474.2 610.4,471.3 617.2,472.9 624.0,473.4 630.8,473.2 637.6,475.2 644.4,476.1 651.2,476.5 658.0,474.7 664.8,475.1 671.6,477.1 678.4,475.6 685.2,473.4 692.0,475.5 698.8,476.0 705.6,475.2 712.4,477.1 719.2,474.4 726.0,477.1 732.8,479.2 739.6,478.2 746.4,476.8 753.2,476.1 760.0,475.4"/>
<line x1="790" y1="98" x2="815" y2="98" stroke="#2ca02c" stroke-width="3"/>
<text x="825" y="102" font-family="Arial" font-size="13">C stairs</text>
<polyline fill="none" stroke="#9467bd" stroke-width="2" points="80.0,389.5 86.8,325.7 93.6,337.7 100.4,385.4 107.2,385.0 114.0,322.6 120.8,271.6 127.6,252.8 134.4,203.9 141.2,160.7 148.0,168.6 154.8,144.5 161.6,100.9 168.4,207.8 175.2,226.6 182.0,217.4 188.8,157.9 195.6,92.0 202.4,81.7 209.2,95.8 216.0,126.8 222.8,195.0 229.6,214.9 236.4,298.1 243.2,269.3 250.0,236.9 256.8,270.7 263.6,316.8 270.4,290.6 277.2,250.5 284.0,210.8 290.8,265.9 297.6,315.5 304.4,294.8 311.2,285.8 318.0,257.6 324.8,203.4 331.6,201.8 338.4,211.6 345.2,259.2 352.0,198.0 358.8,117.6 365.6,149.0 372.4,174.1 379.2,119.2 386.0,80.7 392.8,157.2 399.6,244.5 406.4,180.6 413.2,169.4 420.0,156.1 426.8,220.4 433.6,256.1 440.4,212.1 447.2,192.9 454.0,226.9 460.8,321.7 467.6,306.7 474.4,282.1 481.2,235.3 488.0,156.3 494.8,77.7 501.6,173.5 508.4,229.8 515.2,265.2 522.0,298.1 528.8,244.0 535.6,139.3 542.4,103.8 549.2,186.4 556.0,277.5 562.8,288.1 569.6,272.5 576.4,340.1 583.2,334.6 590.0,258.2 596.8,239.7 603.6,182.3 610.4,67.0 617.2,100.1 624.0,158.0 630.8,182.1 637.6,142.7 644.4,188.5 651.2,281.4 658.0,313.6 664.8,295.7 671.6,237.8 678.4,240.4 685.2,246.2 692.0,264.3 698.8,242.0 705.6,199.0 712.4,125.9 719.2,50.0 726.0,77.2 732.8,184.8 739.6,184.5 746.4,218.7 753.2,217.9 760.0,271.7"/>
<line x1="790" y1="122" x2="815" y2="122" stroke="#9467bd" stroke-width="3"/>
<text x="825" y="126" font-family="Arial" font-size="13">D sitting</text>
<polyline fill="none" stroke="#ff7f0e" stroke-width="2" points="80.0,439.1 86.8,184.4 93.6,293.6 100.4,302.0 107.2,258.0 114.0,335.4 120.8,331.6 127.6,262.6 134.4,221.8 141.2,200.1 148.0,170.5 154.8,201.2 161.6,213.3 168.4,215.8 175.2,199.1 182.0,137.4 188.8,135.8 195.6,124.2 202.4,80.1 209.2,120.9 216.0,148.5 222.8,148.5 229.6,145.7 236.4,84.5 243.2,116.5 250.0,136.1 256.8,154.0 263.6,50.0 270.4,84.8 277.2,233.6 284.0,244.8 290.8,277.6 297.6,330.4 304.4,364.9 311.2,386.8 318.0,385.2 324.8,336.5 331.6,374.6 338.4,397.3 345.2,370.9 352.0,404.2 358.8,403.8 365.6,382.2 372.4,414.5 379.2,396.4 386.0,355.9 392.8,350.5 399.6,366.9 406.4,400.9 413.2,382.9 420.0,373.7 426.8,373.5 433.6,366.8 440.4,345.4 447.2,352.5 454.0,384.3 460.8,391.8 467.6,355.4 474.4,332.3 481.2,340.6 488.0,353.8 494.8,376.6 501.6,373.0 508.4,360.0 515.2,400.9 522.0,391.8 528.8,395.3 535.6,409.4 542.4,397.0 549.2,415.5 556.0,421.0 562.8,423.2 569.6,414.2 576.4,417.4 583.2,410.2 590.0,439.4 596.8,434.7 603.6,419.7 610.4,417.6 617.2,425.5 624.0,410.6 630.8,408.5 637.6,415.0 644.4,401.5 651.2,397.2 658.0,410.0 664.8,423.9 671.6,424.4 678.4,409.5 685.2,401.4 692.0,420.3 698.8,413.3 705.6,421.6 712.4,422.9 719.2,424.8 726.0,426.9 732.8,421.1 739.6,421.0 746.4,420.2 753.2,426.5 760.0,421.7"/>
<line x1="790" y1="146" x2="815" y2="146" stroke="#ff7f0e" stroke-width="3"/>
<text x="825" y="150" font-family="Arial" font-size="13">E standing</text>
<polyline fill="none" stroke="#17becf" stroke-width="2" points="80.0,415.4 86.8,302.5 93.6,280.3 100.4,254.3 107.2,290.1 114.0,286.2 120.8,289.9 127.6,304.3 134.4,242.8 141.2,165.7 148.0,158.5 154.8,112.9 161.6,118.2 168.4,161.3 175.2,189.7 182.0,136.7 188.8,70.9 195.6,50.0 202.4,56.8 209.2,154.3 216.0,160.1 222.8,154.8 229.6,204.6 236.4,146.5 243.2,172.0 250.0,248.3 256.8,226.5 263.6,194.0 270.4,149.4 277.2,211.6 284.0,201.5 290.8,174.6 297.6,209.7 304.4,233.4 311.2,253.4 318.0,291.7 324.8,256.4 331.6,269.7 338.4,258.0 345.2,255.1 352.0,292.3 358.8,312.4 365.6,289.5 372.4,285.5 379.2,322.3 386.0,315.9 392.8,281.7 399.6,269.9 406.4,252.5 413.2,279.0 420.0,305.6 426.8,284.1 433.6,295.1 440.4,309.9 447.2,302.2 454.0,300.4 460.8,295.9 467.6,314.5 474.4,299.1 481.2,305.9 488.0,315.1 494.8,323.4 501.6,344.0 508.4,350.1 515.2,340.6 522.0,328.3 528.8,348.5 535.6,353.6 542.4,352.1 549.2,351.5 556.0,362.9 562.8,361.0 569.6,357.5 576.4,371.3 583.2,378.3 590.0,390.7 596.8,387.1 603.6,407.8 610.4,407.7 617.2,397.5 624.0,382.1 630.8,393.5 637.6,415.0 644.4,419.0 651.2,407.1 658.0,406.8 664.8,402.8 671.6,400.8 678.4,415.8 685.2,405.9 692.0,421.4 698.8,430.1 705.6,412.7 712.4,407.1 719.2,417.9 726.0,420.1 732.8,419.2 739.6,430.0 746.4,439.6 753.2,436.6 760.0,416.1"/>
<line x1="790" y1="170" x2="815" y2="170" stroke="#17becf" stroke-width="3"/>
<text x="825" y="174" font-family="Arial" font-size="13">M kicking</text>
<polyline fill="none" stroke="#8c564b" stroke-width="2" points="80.0,405.5 86.8,351.8 93.6,275.6 100.4,318.4 107.2,412.7 114.0,397.5 120.8,365.5 127.6,285.9 134.4,217.9 141.2,142.5 148.0,127.7 154.8,268.4 161.6,204.8 168.4,223.4 175.2,214.1 182.0,177.2 188.8,138.4 195.6,50.0 202.4,74.8 209.2,125.9 216.0,140.7 222.8,239.5 229.6,276.7 236.4,253.7 243.2,254.9 250.0,252.7 256.8,235.5 263.6,279.6 270.4,272.7 277.2,226.3 284.0,278.5 290.8,265.9 297.6,290.1 304.4,314.1 311.2,352.3 318.0,354.0 324.8,327.1 331.6,328.9 338.4,342.0 345.2,360.8 352.0,323.6 358.8,320.3 365.6,381.1 372.4,359.2 379.2,348.7 386.0,347.7 392.8,351.6 399.6,359.2 406.4,338.7 413.2,324.6 420.0,305.5 426.8,298.5 433.6,308.4 440.4,299.4 447.2,344.4 454.0,368.6 460.8,330.7 467.6,362.7 474.4,365.8 481.2,377.5 488.0,376.3 494.8,372.1 501.6,371.7 508.4,372.2 515.2,397.9 522.0,390.1 528.8,365.4 535.6,366.4 542.4,352.4 549.2,368.9 556.0,367.7 562.8,396.4 569.6,401.1 576.4,392.3 583.2,410.7 590.0,385.1 596.8,398.8 603.6,418.4 610.4,413.7 617.2,422.4 624.0,430.6 630.8,445.9 637.6,448.2 644.4,437.7 651.2,431.0 658.0,426.8 664.8,435.8 671.6,447.3 678.4,452.9 685.2,446.3 692.0,443.1 698.8,456.0 705.6,457.3 712.4,453.7 719.2,447.6 726.0,445.7 732.8,450.9 739.6,453.3 746.4,455.9 753.2,448.4 760.0,450.4"/>
<line x1="790" y1="194" x2="815" y2="194" stroke="#8c564b" stroke-width="3"/>
<text x="825" y="198" font-family="Arial" font-size="13">O catch</text>
<polyline fill="none" stroke="#e377c2" stroke-width="2" points="80.0,461.9 86.8,371.3 93.6,370.1 100.4,385.9 107.2,403.8 114.0,408.0 120.8,374.3 127.6,361.9 134.4,340.7 141.2,239.5 148.0,190.8 154.8,139.7 161.6,139.3 168.4,124.4 175.2,84.6 182.0,62.4 188.8,50.0 195.6,97.2 202.4,162.4 209.2,220.4 216.0,209.3 222.8,196.6 229.6,164.0 236.4,207.3 243.2,226.4 250.0,258.3 256.8,273.6 263.6,218.4 270.4,184.6 277.2,236.2 284.0,290.4 290.8,310.1 297.6,281.4 304.4,288.1 311.2,298.9 318.0,277.5 324.8,270.0 331.6,236.4 338.4,267.2 345.2,254.6 352.0,258.2 358.8,278.2 365.6,212.2 372.4,142.7 379.2,212.5 386.0,170.0 392.8,114.2 399.6,228.0 406.4,200.3 413.2,202.2 420.0,241.5 426.8,192.9 433.6,190.4 440.4,174.2 447.2,169.2 454.0,219.3 460.8,244.5 467.6,183.7 474.4,103.7 481.2,155.9 488.0,233.0 494.8,205.1 501.6,196.8 508.4,225.0 515.2,223.5 522.0,285.7 528.8,268.8 535.6,250.6 542.4,253.4 549.2,259.3 556.0,278.9 562.8,308.7 569.6,317.1 576.4,346.0 583.2,362.3 590.0,359.7 596.8,368.9 603.6,373.1 610.4,375.6 617.2,400.8 624.0,399.1 630.8,403.8 637.6,408.0 644.4,401.9 651.2,405.9 658.0,417.1 664.8,424.8 671.6,429.5 678.4,417.3 685.2,423.8 692.0,421.8 698.8,421.3 705.6,420.5 712.4,425.1 719.2,425.5 726.0,431.0 732.8,423.8 739.6,416.4 746.4,430.0 753.2,432.0 760.0,436.3"/>
<line x1="790" y1="218" x2="815" y2="218" stroke="#e377c2" stroke-width="3"/>
<text x="825" y="222" font-family="Arial" font-size="13">P dribbling</text>
<text x="420.0" y="538" text-anchor="middle" font-family="Arial" font-size="14">Frequency (Hz)</text>
<text transform="translate(22 270.0) rotate(-90)" text-anchor="middle" font-family="Arial" font-size="14">Normalized power</text>
</svg>